<?xml version="1.0" encoding="utf-8"?>
<!-- Generator: Adobe Illustrator 21.1.0, SVG Export Plug-In . SVG Version: 6.00 Build 0)  -->
<svg version="1.1" id="Layer_1" xmlns="http://www.w3.org/2000/svg" xmlns:xlink="http://www.w3.org/1999/xlink" x="0px" y="0px"
	 viewBox="0 0 743.3 130.3" style="enable-background:new 0 0 743.3 130.3;" xml:space="preserve">
<style type="text/css">
	.st0{clip-path:url(#SVGID_2_);fill:#FFFFFF;}
	.st1{clip-path:url(#SVGID_2_);fill:none;stroke:#FFFFFF;stroke-width:3;}
	.st2{clip-path:url(#SVGID_2_);}
</style>
<g>
	<defs>
		<rect id="SVGID_1_" width="743.3" height="130.3"/>
	</defs>
	<clipPath id="SVGID_2_">
		<use xlink:href="#SVGID_1_"  style="overflow:visible;"/>
	</clipPath>
	<path class="st0" d="M719.3,96.9c-3.8,0-7.3-1-10.3-2.9c-3-1.9-5.4-4.6-7.1-7.9c-1.7-3.4-2.5-7.2-2.5-11.5s0.8-8.2,2.5-11.5
		c1.7-3.4,4-6,7.1-7.9c3-1.9,6.5-2.8,10.3-2.8c3.8,0,7.1,1,10.2,2.9c3,1.9,5.4,4.6,7.1,7.9c1.7,3.4,2.6,7.2,2.6,11.4
		c0,4.2-0.9,8.1-2.6,11.5c-1.7,3.4-4.1,6.1-7.1,8C726.4,96,723.1,96.9,719.3,96.9 M719.5,48.4c-4.2,0-8.1,0.9-11.5,2.8
		c-3.4,1.9-6.2,4.8-8.2,8.7v-9.4c0-0.5-0.2-1-0.6-1.4c-0.4-0.4-0.9-0.6-1.5-0.6c-0.6,0-1.1,0.2-1.5,0.6c-0.4,0.4-0.6,0.9-0.6,1.4
		v68.2c0,0.5,0.2,1,0.6,1.4c0.4,0.4,0.9,0.6,1.4,0.6c0.6,0,1.1-0.2,1.5-0.6s0.6-0.9,0.6-1.4V89c2.2,3.8,5,6.7,8.4,8.7
		c3.4,2.1,7.2,3.1,11.3,3.1c4.4,0,8.5-1.1,12.1-3.4c3.6-2.3,6.5-5.4,8.6-9.4c2.1-4,3.1-8.5,3.1-13.4c0-5-1-9.5-3.1-13.4
		c-2.1-4-4.9-7.1-8.5-9.3C728.1,49.5,724,48.4,719.5,48.4 M674.6,49c-0.6,0-1.1,0.2-1.5,0.6c-0.4,0.4-0.6,0.9-0.6,1.4v29.9
		c0,5.1-1.4,9.1-4.3,11.8c-2.9,2.8-6.9,4.2-12,4.2c-5.1,0-9-1.4-11.9-4.2c-2.9-2.8-4.3-6.7-4.3-11.8V51.1c0-0.5-0.2-1-0.6-1.4
		c-0.4-0.4-0.9-0.6-1.5-0.6c-0.5,0-1,0.2-1.4,0.6c-0.4,0.4-0.6,0.9-0.6,1.4v29.9c0,6.5,1.8,11.4,5.4,14.8c3.6,3.4,8.6,5.1,14.9,5.1
		s11.3-1.7,14.9-5.1c3.7-3.4,5.5-8.3,5.5-14.8V51.1c0-0.5-0.2-1-0.6-1.4C675.7,49.2,675.2,49,674.6,49 M616.3,74.4
		c0,4.3-0.9,8.2-2.7,11.7c-1.8,3.5-4.3,6.3-7.5,8.3c-3.2,2-6.8,3-10.9,3c-4,0-7.6-1-10.8-3c-3.2-2-5.8-4.8-7.6-8.3
		c-1.8-3.5-2.8-7.4-2.8-11.7c0-4.4,0.9-8.3,2.8-11.8c1.8-3.5,4.4-6.2,7.6-8.3c3.2-2,6.9-3,10.8-3c4,0,7.7,1,10.9,3
		c3.2,2,5.7,4.8,7.5,8.3C615.4,66,616.3,70,616.3,74.4 M620.4,74.4c0-5.1-1.1-9.6-3.3-13.7c-2.2-4.1-5.2-7.3-9.1-9.7
		c-3.9-2.4-8.2-3.5-12.9-3.5c-4.8,0-9.1,1.2-12.9,3.5c-3.8,2.4-6.9,5.6-9.1,9.7c-2.2,4.1-3.3,8.7-3.3,13.7c0,5,1.1,9.5,3.3,13.6
		c2.2,4.1,5.3,7.3,9.1,9.7c3.9,2.4,8.2,3.5,12.9,3.5c4.7,0,9-1.2,12.9-3.5c3.9-2.4,6.9-5.6,9.1-9.6C619.3,84,620.4,79.4,620.4,74.4
		 M559.1,47.4c-4.5,0.1-8.4,1.5-11.7,4.2c-3.3,2.7-5.8,6.2-7.3,10.4V51.1c0-0.5-0.2-1-0.6-1.4c-0.4-0.4-0.9-0.6-1.5-0.6
		c-0.5,0-1,0.2-1.4,0.6c-0.4,0.4-0.6,0.9-0.6,1.4v47.1c0,0.5,0.2,1,0.6,1.4c0.4,0.4,0.9,0.6,1.5,0.6c0.5,0,1-0.2,1.4-0.6
		c0.4-0.4,0.6-0.9,0.6-1.4V72.5c0-3.1,0.9-6.4,2.7-9.8c1.8-3.4,4.1-6.2,6.9-8.4c2.8-2.2,5.6-3.3,8.4-3.3c0.9,0,1.7,0.2,2.5,0.5
		c0.8,0.3,1.3,0.5,1.5,0.5c0.5,0,1-0.2,1.3-0.6c0.3-0.4,0.5-0.9,0.5-1.5C563.8,48.2,562.2,47.4,559.1,47.4 M492.2,97.3
		c-4,0-7.5-1-10.7-3c-3.2-2-5.7-4.8-7.5-8.3c-1.8-3.5-2.7-7.4-2.7-11.8s0.9-8.3,2.7-11.8c1.8-3.5,4.3-6.2,7.5-8.2
		c3.2-2,6.8-3,10.7-3c4,0,7.5,1,10.7,2.9c3.2,1.9,5.7,4.6,7.5,8.1c1.8,3.5,2.7,7.5,2.7,12c0,4.5-0.9,8.5-2.7,12
		c-1.8,3.5-4.3,6.2-7.5,8.2C499.7,96.4,496.1,97.3,492.2,97.3 M514.7,49c-0.6,0-1.1,0.2-1.5,0.6c-0.4,0.4-0.6,0.9-0.6,1.4v8.7
		c-1.6-3.4-4.4-6.3-8.2-8.8c-3.8-2.4-8-3.6-12.6-3.6c-4.7,0-8.9,1.2-12.7,3.5c-3.8,2.3-6.8,5.5-8.9,9.6c-2.2,4.1-3.2,8.7-3.2,13.7
		s1.1,9.6,3.2,13.7c2.2,4.1,5.1,7.3,8.9,9.7c3.8,2.4,8,3.5,12.7,3.5c4.2,0,8.3-1.1,12.2-3.3c3.9-2.2,6.7-5.5,8.6-9.8v7.1
		c0,6.5-1.9,11.7-5.6,15.7c-3.8,4-8.9,6-15.3,6c-4.2,0-8-0.7-11.4-2.1c-1.2-0.5-2.2-1.2-3.2-2.2c-0.8-0.7-1.4-1-1.8-1
		c-0.5,0-1,0.2-1.3,0.5c-0.3,0.3-0.5,0.8-0.5,1.3c0,1.2,0.9,2.3,2.7,3.4c1.8,1.1,4.1,2.1,6.9,2.8c2.8,0.7,5.6,1.1,8.3,1.1
		c4.9,0,9.3-1,13.1-3.1c3.8-2.1,6.8-5,8.9-8.9c2.1-3.8,3.2-8.3,3.2-13.5V51.1c0-0.5-0.2-1-0.6-1.4C515.9,49.2,515.4,49,514.7,49"/>
	<path class="st0" d="M431.2,97.3c-3.8,0-7.2-1-10.3-3c-3-2-5.4-4.8-7.1-8.4c-1.7-3.6-2.6-7.5-2.6-11.9c0-4.4,0.8-8.3,2.5-11.7
		c1.7-3.5,4-6.2,7.1-8.1c3-1.9,6.5-2.9,10.3-2.9c3.8,0,7.1,1,10.2,2.9c3,1.9,5.4,4.7,7.1,8.1c1.7,3.5,2.6,7.4,2.6,11.7
		c0,4.4-0.9,8.3-2.6,11.8c-1.7,3.5-4.1,6.3-7.1,8.4C438.4,96.3,435,97.3,431.2,97.3 M431.4,47.4c-4.2,0-8,1.1-11.4,3.2
		c-3.5,2.2-6.2,5.3-8.3,9.3V26.4c0-0.5-0.2-1-0.6-1.4c-0.4-0.4-0.9-0.6-1.5-0.6c-0.6,0-1.1,0.2-1.5,0.6c-0.4,0.4-0.6,0.9-0.6,1.4
		v71.7c0,0.5,0.2,1,0.6,1.4c0.4,0.4,0.9,0.6,1.4,0.6c0.6,0,1.1-0.2,1.5-0.6c0.4-0.4,0.6-0.9,0.6-1.4V89c2.3,3.8,5.1,6.8,8.5,9
		c3.4,2.2,7.1,3.2,11.2,3.2c4.4,0,8.5-1.2,12.1-3.6c3.6-2.4,6.5-5.7,8.6-9.8c2.1-4.1,3.1-8.7,3.1-13.8c0-5.1-1-9.6-3.1-13.7
		c-2.1-4.1-4.9-7.2-8.5-9.5C440,48.5,436,47.4,431.4,47.4 M369,51.5c3,0,5.9,0.7,8.7,1.9c2.8,1.3,5.1,3.2,7,5.7c1.9,2.5,3,5.5,3.3,9
		V69h-37.8c0.7-3.8,2-7,4.1-9.6c2-2.6,4.3-4.6,7-5.9C363.9,52.1,366.4,51.5,369,51.5 M389.9,87.9c-0.7,0-1.3,0.3-1.7,0.9
		c-1.6,2.5-3.9,4.5-6.8,6.1c-2.9,1.6-6,2.4-9.3,2.4c-4.7,0-8.8-1-12.1-3.1c-3.4-2.1-5.9-4.8-7.6-8.4c-1.7-3.5-2.6-7.4-2.6-11.6v-1.3
		h40.3c0.5,0,1-0.2,1.4-0.7c0.4-0.4,0.6-0.9,0.6-1.5c-0.1-5.1-1.3-9.4-3.5-12.9c-2.2-3.5-5-6.1-8.5-7.8c-3.5-1.7-7.2-2.6-11.2-2.6
		c-4,0-7.8,1.1-11.4,3.3c-3.6,2.2-6.4,5.4-8.6,9.5c-2.2,4.1-3.2,8.9-3.2,14.4c0,5.3,1.1,10,3.3,14.1c2.2,4,5.3,7.1,9.3,9.3
		c4,2.2,8.5,3.3,13.6,3.3c3.8,0,7.4-1,10.8-2.9s6.2-4.4,8.4-7.4c0.3-0.3,0.4-0.8,0.4-1.2s-0.2-0.9-0.5-1.3
		C390.8,88.1,390.4,87.9,389.9,87.9 M332.8,47.2c-0.9,0-1.5,0.4-1.8,1.3l-14.3,44.4l-14.5-33.4c-0.1-0.4-0.4-0.7-0.8-1
		c-0.4-0.2-0.8-0.4-1.2-0.4c-0.4,0-0.8,0.1-1.2,0.4c-0.4,0.2-0.6,0.6-0.8,1l-13.6,33.8l-14.5-44.7c-0.3-0.9-1-1.3-1.8-1.3
		c-0.6,0-1.1,0.2-1.5,0.5c-0.4,0.3-0.6,0.8-0.6,1.4l0.2,1l16.4,48.7c0.1,0.4,0.4,0.7,0.8,1c0.4,0.2,0.8,0.4,1.2,0.4
		c0.4,0,0.8-0.1,1.2-0.4c0.4-0.2,0.6-0.6,0.8-1L300,65.3l14.9,33.5c0.5,0.9,1.1,1.3,1.9,1.3c0.9,0,1.5-0.4,1.9-1.3l15.9-48.7l0.2-1
		c0-0.6-0.2-1.1-0.6-1.4C333.9,47.3,333.4,47.2,332.8,47.2"/>
	<path class="st0" d="M247.9,96.7c3.8-3.6,5.8-8.7,5.8-15.6V49.8c0-0.6-0.2-1.1-0.6-1.5c-0.4-0.4-0.9-0.6-1.6-0.6
		c-0.6,0-1.2,0.2-1.6,0.6c-0.4,0.4-0.6,0.9-0.6,1.5v31.3c0,5.4-1.5,9.5-4.5,12.4c-3,2.9-7.2,4.4-12.6,4.4c-5.3,0-9.5-1.5-12.5-4.4
		c-3-2.9-4.5-7-4.5-12.4V49.8c0-0.6-0.2-1.1-0.6-1.5c-0.4-0.4-0.9-0.6-1.6-0.6c-0.6,0-1.1,0.2-1.5,0.6c-0.4,0.4-0.6,0.9-0.6,1.5
		v31.3c0,6.8,1.9,12,5.7,15.6c3.8,3.6,9,5.3,15.6,5.3S244,100.2,247.9,96.7"/>
	<path class="st0" d="M197.9,101.2c0.4-0.4,0.6-0.9,0.6-1.5V68.4c0-6.8-1.9-12-5.7-15.6c-3.8-3.6-9-5.3-15.6-5.3
		c-6.6,0-11.8,1.8-15.7,5.3c-3.8,3.6-5.8,8.7-5.8,15.6v31.3c0,0.6,0.2,1.1,0.6,1.5c0.4,0.4,0.9,0.6,1.6,0.6s1.2-0.2,1.6-0.6
		c0.4-0.4,0.6-0.9,0.6-1.5V68.4c0-5.4,1.5-9.5,4.5-12.4c3-2.9,7.2-4.4,12.6-4.4c5.3,0,9.5,1.5,12.5,4.4c3,2.9,4.5,7.1,4.5,12.4v31.3
		c0,0.6,0.2,1.1,0.6,1.5c0.4,0.4,0.9,0.6,1.6,0.6C197,101.8,197.5,101.6,197.9,101.2"/>
	<circle class="st1" cx="65.2" cy="65.2" r="63.2"/>
	<path class="st2" d="M88.9,25.3"/>
	<path class="st0" d="M66.3,69.7l3.7-2.2l-4.6-7.5l-3.7,2.2L66.3,69.7z M63.3,56.5c-3.4-5.1-7.4-8.1-12.2-9.1
		c-5.2-1.1-10.6,0.1-16.3,3.5c-5.7,3.4-9.3,7.7-10.7,12.7c-1.4,5-0.4,10.5,3.1,16.4l16.3,27.1c0.3,0.5,0.7,0.8,1.3,1
		c0.6,0.1,1.1,0.1,1.6-0.2c0.6-0.3,0.9-0.8,1-1.4c0.1-0.6,0-1.1-0.3-1.6L31,77.8c-2.8-4.7-3.6-9-2.5-13.1c1.1-4.1,3.9-7.5,8.5-10.2
		c4.7-2.8,9-3.7,13.1-2.8c3.7,0.8,6.9,3.2,9.5,7.1L63.3,56.5z M105,50.3L88.7,23.2c-0.3-0.5-0.7-0.8-1.3-1c-0.6-0.1-1.1-0.1-1.6,0.2
		c-0.6,0.3-0.9,0.8-1,1.4c-0.1,0.6,0,1.1,0.3,1.6l16.3,27.1c2.8,4.7,3.6,9,2.5,13.1c-1.1,4.1-3.9,7.5-8.5,10.2
		c-4.7,2.8-9,3.7-13.1,2.8c-3.9-0.9-7.2-3.5-10-7.8l-3.7,2.2c3.5,5.5,7.7,8.8,12.7,9.9c5.2,1.1,10.6-0.1,16.3-3.5
		c5.7-3.4,9.3-7.7,10.7-12.7C109.6,61.7,108.5,56.2,105,50.3"/>
</g>
</svg>
